<?xml version="1.0" encoding="iso-8859-1"?>
<!-- Uploaded to: SVG Repo, www.svgrepo.com, Generator: SVG Repo Mixer Tools -->
<!DOCTYPE svg PUBLIC "-//W3C//DTD SVG 1.1//EN" "http://www.w3.org/Graphics/SVG/1.1/DTD/svg11.dtd">
<svg fill="#000000" version="1.1" id="Capa_1" xmlns="http://www.w3.org/2000/svg" xmlns:xlink="http://www.w3.org/1999/xlink" 
	 width="800px" height="800px" viewBox="0 0 93.457 93.457"
	 xml:space="preserve">
<g>
	<g>
		<path d="M88.721,35.3L58.153,4.734C55.101,1.681,51.042,0,46.725,0S38.35,1.681,35.296,4.734L4.73,35.3
			c-6.301,6.302-6.301,16.556,0,22.856l30.565,30.566c3.054,3.053,7.111,4.734,11.43,4.734c4.316,0,8.375-1.682,11.428-4.734
			L88.72,58.156c3.053-3.053,4.733-7.111,4.733-11.428C93.453,42.411,91.772,38.353,88.721,35.3z M87.024,56.461L56.458,87.027
			c-2.6,2.601-6.057,4.033-9.732,4.033c-3.677,0-7.134-1.433-9.732-4.033L6.426,56.461c-5.366-5.367-5.366-14.099,0-19.465
			L36.993,6.43c2.6-2.6,6.056-4.032,9.732-4.032c3.676,0,7.133,1.432,9.732,4.032l30.566,30.566c2.6,2.6,4.032,6.056,4.032,9.732
			C91.057,50.404,89.624,53.861,87.024,56.461z"/>
		<path d="M67.379,30.406c-3.473-3.463-6.387-3.458-9.876,0.031c-1.673,1.673-3.347,3.346-5.239,5.239
			c0.497-3.661-0.503-5.947-2.906-7.166c-2.495-1.266-4.952-0.708-7.333,1.668c-1.357,1.356-2.704,2.723-4.075,4.064
			c-0.36,0.352-0.627,0.909-1.291,0.784c0.327-3.166-0.798-5.457-3.242-6.608c-2.397-1.13-4.854-0.558-7.082,1.666
			c-4.449,4.443-8.896,8.889-13.339,13.339c-2.048,2.05-2.264,4.318-0.596,6.056c1.628,1.694,4.033,1.496,6.038-0.506
			c3.317-3.313,6.632-6.632,9.947-9.947c1.281-1.282,2.554-2.572,3.848-3.84c0.906-0.888,1.894-0.999,2.799-0.044
			c0.882,0.929,0.4,1.68-0.388,2.443c-2.03,1.963-4.011,3.978-6.002,5.98c-1.904,1.914-2.081,4.296-0.451,5.921
			c1.672,1.668,3.963,1.505,5.91-0.438c4.413-4.405,8.817-8.817,13.228-13.224c0.339-0.338,0.661-0.71,1.052-0.976
			c0.887-0.6,1.738-0.443,2.424,0.341c0.691,0.792,0.499,1.493-0.244,2.212c-1.991,1.927-3.929,3.909-5.888,5.868
			c-0.264,0.264-0.541,0.517-0.789,0.794c-1.479,1.647-1.438,3.974,0.088,5.468c1.516,1.484,3.852,1.488,5.449-0.09
			c4.057-4.007,13.07-13.022,13.07-13.022l6.53,6.432l-6.354,0.003c-2.483,0.022-4.294,2.03-3.959,4.367
			c0.306,2.133,1.853,3.387,4.312,3.397c4.849,0.022,9.697-0.017,14.548,0.019c1.928,0.014,3.481-0.554,4.266-2.431
			c0.787-1.886,0.075-3.37-1.303-4.726C76.124,39.145,71.756,34.771,67.379,30.406z"/>
		<path d="M70.195,58.363c0-0.061,0-0.098,0-0.098h-0.015c-0.021-0.096-0.057-0.189-0.118-0.271l-1.989-2.614
			c-0.133-0.174-0.339-0.276-0.558-0.276c-0.22,0-0.426,0.103-0.559,0.276l-1.987,2.614c-0.063,0.082-0.098,0.176-0.119,0.271
			h-6.454v-2.172h-1.898l0.014,2.172H31.297v-2.379h-1.773l0.01,5.865c0.069,1.462-0.61,2.764-1.93,3.785
			c1.291,0.059,2.976-0.227,3.472-1.561c0.3-0.804,0.191-0.812,0.191-0.812s7.67,0.006,10.864,0.006l28.033-0.023h0.021v-0.041
			c0.037-0.069,0.017-3.729,0.011-4.637C70.199,58.434,70.198,58.398,70.195,58.363z M66.523,58.268l0.992-1.305l0.992,1.305H66.523
			z"/>
		<path d="M27.418,58.337l-1.86-2.241c-0.309-0.369-0.938-0.369-1.245,0l-1.861,2.241c-0.137,0.165-0.195,0.369-0.183,0.569v4.392
			h3.362c-0.288,0.864-0.868,1.646-1.724,2.306c1.291,0.059,3.039-0.226,3.536-1.56c0.154-0.37,0.155-0.892,0.155-0.892
			c0-0.004,0-0.006,0-0.01l0,0v-4.203C27.621,58.729,27.562,58.51,27.418,58.337z M23.833,59.042l1.103-1.616l1.102,1.616H23.833z"
			/>
		<rect x="55.343" y="53.262" width="1.413" height="1.413"/>
		<rect x="58.012" y="53.262" width="1.412" height="1.413"/>
	</g>
</g>
</svg>